<svg viewBox="0 0 125 23" xmlns="http://www.w3.org/2000/svg" width="100%" height="100%" fill-rule="evenodd" stroke-linejoin="round" stroke-miterlimit="1.41" clip-rule="evenodd"><path fill="#8e8e93" d="M113.5 0L110 9h-8l6.63 4.88-2.62 9.12 7.5-6 7.5 6-2.63-9.13L125.01 9h-8l-3.5-9zM88 0l-3.5 9h-8l6.62 4.88L80.5 23l7.5-6 7.5 6-2.63-9.13L99.5 9h-8L88 0zM62.49 0l-3.5 9h-8l6.62 4.88L55 23l7.5-6 7.5 6-2.63-9.13L74 9h-8l-3.5-9zM36.97 0l-3.5 9h-8l6.63 4.88L29.47 23l7.5-6 7.5 6-2.62-9.13L48.47 9h-8l-3.5-9zM11.46 0l-3.5 9h-8l6.63 4.88L3.96 23l7.5-6 7.5 6-2.62-9.13L22.96 9h-8l-3.5-9z"/></svg>
